<svg width="51" height="32" viewBox="0 0 51 32" fill="none" xmlns="http://www.w3.org/2000/svg">
<g clip-path="url(#clip0_2123_1436)">
<path d="M0.191895 26.9383L15.7901 11.0293L20.7608 16.0959L5.15343 31.9956L0.191895 26.9383Z" fill="#FFF2CE"/>
<path d="M4.96569 0.00390625L20.7623 16.096L15.7921 21.162L0.00415039 5.06116L4.96569 0.00390625Z" fill="#FFF2CE"/>
<path d="M14.9541 26.9383L30.5523 11.0293L35.523 16.0959L19.9156 31.9956L14.9541 26.9383Z" fill="#FFE59D"/>
<path d="M19.728 0.00390625L35.5246 16.096L30.5545 21.162L14.7664 5.06116L19.728 0.00390625Z" fill="#FFE59D"/>
<path d="M29.7163 26.9383L45.3145 11.0293L50.2852 16.0959L34.6778 31.9956L29.7163 26.9383Z" fill="#FFD86D"/>
<path d="M34.4902 0.00390625L50.2868 16.096L45.3167 21.162L29.5286 5.06116L34.4902 0.00390625Z" fill="#FFD86D"/>
</g>
<defs>
<clipPath id="clip0_2123_1436">
<rect width="51" height="32" fill="white"/>
</clipPath>
</defs>
</svg>
