<svg width="224" height="228" viewBox="0 0 224 228" fill="none" xmlns="http://www.w3.org/2000/svg">
<path d="M200.533 137.01C200.053 137.658 199.42 137.884 198.634 137.687C198.053 137.542 197.625 137.226 197.348 136.738C197.079 136.262 197.034 135.662 197.213 134.939L198.088 131.418L205.111 133.172L204.306 136.411C204.131 137.116 203.818 137.616 203.366 137.912C202.924 138.21 202.418 138.288 201.847 138.146C201.172 137.977 200.734 137.599 200.533 137.01ZM203.224 136.081L203.718 134.096L201.878 133.636L201.384 135.622C201.207 136.336 201.432 136.771 202.06 136.927C202.659 137.077 203.047 136.795 203.224 136.081ZM198.34 135.146C198.252 135.503 198.268 135.796 198.39 136.026C198.51 136.265 198.724 136.423 199.033 136.501C199.323 136.573 199.573 136.531 199.781 136.373C199.996 136.227 200.148 135.976 200.236 135.619L200.796 133.366L198.9 132.893L198.34 135.146Z" fill="white"/>
<path d="M194.721 146.83L194.373 147.769L191.429 146.673L191.862 145.503L193.681 146.18L195.571 141.078L193.752 140.4L194.186 139.23L197.13 140.327L196.823 141.157C197.259 141.815 198.015 142.344 199.091 142.745L202.239 143.917L200.379 148.938L194.721 146.83ZM196.324 142.504L195.155 145.66L199.714 147.358L200.707 144.678L198.658 143.915C197.645 143.538 196.867 143.067 196.324 142.504Z" fill="white"/>
<path d="M190.108 156.106C189.795 155.108 189.88 154.135 190.364 153.188C190.849 152.241 191.586 151.603 192.578 151.276C193.565 150.957 194.535 151.043 195.489 151.533C196.442 152.023 197.077 152.762 197.395 153.752C197.709 154.751 197.624 155.724 197.139 156.671C196.655 157.618 195.917 158.255 194.926 158.583C193.934 158.91 192.962 158.829 192.008 158.339C191.055 157.849 190.422 157.105 190.108 156.106ZM191.459 153.751C191.129 154.396 191.071 155.052 191.284 155.716C191.497 156.38 191.93 156.88 192.583 157.215C193.236 157.551 193.893 157.612 194.556 157.398C195.218 157.184 195.714 156.754 196.045 156.108C196.37 155.471 196.427 154.82 196.213 154.156C196 153.492 195.567 152.992 194.914 152.656C194.261 152.321 193.604 152.26 192.941 152.474C192.279 152.688 191.785 153.114 191.459 153.751Z" fill="white"/>
<path d="M183.8 164.637L184.618 163.404L188.018 163.23L186.869 160.007L187.686 158.775L189.246 163.16L193.626 162.925L192.8 164.17L189.669 164.331L190.733 167.288L189.916 168.521L188.441 164.401L183.8 164.637Z" fill="white"/>
<path d="M184.335 175.73L183.529 176.7L177.968 172.056L178.773 171.086L181.098 173.027L183.497 170.138L181.172 168.197L181.978 167.227L187.54 171.87L186.734 172.841L184.42 170.909L182.021 173.798L184.335 175.73Z" fill="white"/>
<path d="M172.07 179.384C172.101 178.338 172.5 177.447 173.267 176.712C174.035 175.976 174.941 175.617 175.984 175.634C177.021 175.658 177.91 176.058 178.65 176.835C179.39 177.611 179.748 178.52 179.724 179.559C179.693 180.606 179.294 181.497 178.527 182.232C177.759 182.967 176.854 183.326 175.81 183.309C174.766 183.292 173.874 182.895 173.134 182.119C172.394 181.342 172.04 180.431 172.07 179.384ZM174.117 177.604C173.594 178.105 173.324 178.705 173.309 179.402C173.293 180.1 173.538 180.715 174.045 181.246C174.551 181.778 175.153 182.052 175.848 182.068C176.544 182.084 177.154 181.841 177.677 181.34C178.193 180.845 178.459 180.249 178.475 179.551C178.491 178.854 178.246 178.239 177.739 177.707C177.233 177.175 176.631 176.902 175.936 176.886C175.24 176.87 174.634 177.109 174.117 177.604Z" fill="white"/>
<path d="M166.802 187.411C166.024 187.618 165.389 187.398 164.896 186.753C164.532 186.277 164.394 185.761 164.481 185.207C164.567 184.666 164.905 184.169 165.495 183.716L168.368 181.511L172.767 187.274L170.123 189.303C169.548 189.744 168.993 189.939 168.456 189.888C167.924 189.845 167.48 189.589 167.122 189.12C166.7 188.567 166.593 187.997 166.802 187.411ZM169.483 188.369L171.104 187.125L169.951 185.615L168.331 186.859C167.748 187.306 167.653 187.787 168.046 188.301C168.422 188.793 168.901 188.816 169.483 188.369ZM166.247 184.583C165.956 184.806 165.787 185.046 165.739 185.302C165.683 185.564 165.753 185.821 165.946 186.075C166.128 186.313 166.349 186.436 166.61 186.443C166.869 186.464 167.144 186.362 167.435 186.139L169.274 184.727L168.086 183.171L166.247 184.583Z" fill="white"/>
<path d="M160.022 196.159L159.155 196.685L155.408 190.476L156.473 189.83L159.103 194.188L159.903 187.748L160.77 187.222L164.517 193.431L163.452 194.077L160.822 189.719L160.022 196.159Z" fill="white"/>
<path d="M150.86 200.911L150.339 199.81L152.563 198.754L149.986 193.297L151.124 192.756L153.701 198.213L155.938 197.151L156.459 198.253L150.86 200.911Z" fill="white"/>
<path d="M145.082 198.833C144.75 198.263 144.307 197.885 143.752 197.7C143.188 197.518 142.582 197.541 141.935 197.767C141.033 198.083 140.494 198.646 140.316 199.457L139.104 199.235C139.41 197.97 140.232 197.103 141.571 196.634C142.655 196.254 143.657 196.283 144.576 196.72C145.488 197.169 146.126 197.914 146.489 198.955C146.848 199.988 146.815 200.963 146.388 201.881C145.962 202.799 145.22 203.443 144.163 203.813C143.161 204.164 142.222 204.093 141.345 203.601C140.462 203.12 139.848 202.383 139.501 201.387C139.44 201.213 139.392 201.03 139.356 200.838L145.082 198.833ZM143.772 202.689C144.41 202.466 144.875 202.098 145.166 201.586C145.461 201.083 145.554 200.513 145.444 199.875L140.88 201.473C141.206 202.086 141.633 202.49 142.161 202.685C142.688 202.879 143.225 202.881 143.772 202.689Z" fill="white"/>
<path d="M130.874 207.375L129.26 200.301L130.488 200.019L131.83 205.905L134.61 205.268L133.951 202.381C133.687 201.221 133.737 200.356 134.102 199.786C134.46 199.227 135.07 198.889 135.934 198.77L136.199 199.93C135.704 199.974 135.37 200.16 135.197 200.488C135.017 200.827 135.013 201.373 135.186 202.128L136.109 206.175L130.874 207.375Z" fill="white"/>
<path d="M123.426 205.925C122.707 206.011 122.087 205.867 121.566 205.491C121.036 205.127 120.73 204.603 120.649 203.921C120.567 203.239 120.739 202.653 121.166 202.163C121.585 201.683 122.154 201.4 122.872 201.314L125.904 200.947L126.77 208.152L125.52 208.303L125.208 205.709L123.426 205.925ZM123.012 202.481C122.658 202.524 122.373 202.66 122.158 202.891C121.934 203.132 121.843 203.426 121.884 203.772C121.926 204.118 122.084 204.381 122.358 204.562C122.623 204.745 122.933 204.815 123.287 204.772L125.069 204.557L124.794 202.265L123.012 202.481Z" fill="white"/>
<path d="M112.533 209.248L111.273 209.27L111.147 202.014L112.406 201.992L112.459 205.025L116.207 204.96L116.155 201.927L117.414 201.905L117.54 209.161L116.281 209.183L116.228 206.164L112.48 206.23L112.533 209.248Z" fill="white"/>
<path d="M104.533 206.336C103.813 206.263 103.24 205.985 102.813 205.504C102.376 205.032 102.192 204.454 102.262 203.77C102.331 203.087 102.628 202.553 103.152 202.169C103.665 201.793 104.282 201.642 105.002 201.715L108.04 202.025L107.308 209.245L106.055 209.117L106.319 206.518L104.533 206.336ZM100.828 208.584L99.5748 208.456L100.307 201.237L101.56 201.364L100.828 208.584ZM104.883 202.885C104.528 202.849 104.22 202.919 103.96 203.097C103.688 203.283 103.535 203.55 103.5 203.896C103.465 204.243 103.561 204.535 103.79 204.772C104.008 205.008 104.295 205.145 104.65 205.181L106.436 205.363L106.669 203.067L104.883 202.885Z" fill="white"/>
<path d="M93.5991 208.573L93.358 209.649L89.5449 208.79L89.786 207.714L93.5991 208.573ZM89.8685 206.617L88.8799 206.394L90.4661 199.314L91.6807 199.587L90.5672 204.558L95.5927 200.469L96.5813 200.691L94.9951 207.772L93.7805 207.498L94.894 202.528L89.8685 206.617Z" fill="white"/>
<path d="M73.9771 201.32L76.7034 194.597L77.8699 195.073L75.5962 200.679L79.0689 202.095L81.3427 196.489L82.5092 196.965L79.7829 203.687L73.9771 201.32Z" fill="white"/>
<path d="M66.7538 197.981C65.8666 197.49 65.2897 196.746 65.0232 195.747C64.7521 194.758 64.8728 193.797 65.3854 192.865C65.898 191.933 66.6464 191.313 67.6305 191.007C68.61 190.709 69.5433 190.805 70.4306 191.296C71.4784 191.875 72.0462 192.736 72.1341 193.879L74.1333 190.244L75.236 190.853L70.343 199.75L69.2403 199.14L69.8414 198.047C68.8308 198.582 67.8016 198.56 66.7538 197.981ZM69.9828 192.44C69.3491 192.09 68.6979 192.011 68.0293 192.205C67.356 192.408 66.8423 192.831 66.4882 193.475C66.134 194.119 66.0536 194.776 66.2468 195.446C66.4355 196.125 66.8467 196.64 67.4804 196.99C68.1226 197.345 68.7803 197.422 69.4536 197.22C70.1222 197.026 70.6336 196.607 70.9878 195.963C71.3419 195.319 71.4247 194.657 71.2361 193.979C71.0428 193.308 70.625 192.795 69.9828 192.44Z" fill="white"/>
<path d="M58.652 185.053C59.6835 184.891 60.63 185.121 61.4915 185.743C62.353 186.365 62.8711 187.192 63.0457 188.224C63.2124 189.25 62.9829 190.199 62.3572 191.071C61.7314 191.943 60.9067 192.462 59.883 192.629C58.8515 192.791 57.905 192.561 57.0435 191.939C56.182 191.317 55.664 190.49 55.4894 189.458C55.3148 188.426 55.5404 187.474 56.1662 186.602C56.7919 185.731 57.6205 185.214 58.652 185.053ZM60.7728 186.744C60.1854 186.32 59.5482 186.164 58.8613 186.277C58.1743 186.389 57.6167 186.743 57.1882 187.34C56.7598 187.937 56.6015 188.58 56.7134 189.269C56.8253 189.957 57.1749 190.514 57.7623 190.938C58.3419 191.356 58.9751 191.509 59.662 191.397C60.349 191.285 60.9067 190.93 61.3351 190.333C61.7636 189.736 61.9218 189.094 61.8099 188.405C61.698 187.716 61.3523 187.162 60.7728 186.744Z" fill="white"/>
<path d="M45.6227 182.18L50.5538 176.868L51.4543 177.709L47.8744 181.565L52.0837 180.418L52.2003 180.527L51.3602 184.819L54.9401 180.962L55.8513 181.813L50.9202 187.125L49.9349 186.205L50.7666 181.965L46.608 183.1L45.6227 182.18Z" fill="white"/>
<path d="M43.1334 170.023C44.173 170.119 45.035 170.573 45.7192 171.387C46.4035 172.201 46.7048 173.129 46.6231 174.173C46.5352 175.209 46.0819 176.074 45.263 176.766C44.4441 177.458 43.518 177.76 42.4846 177.672C41.4449 177.577 40.583 177.122 39.8987 176.309C39.2144 175.495 38.9131 174.566 38.9948 173.523C39.0765 172.479 39.5267 171.611 40.3456 170.919C41.1645 170.226 42.0937 169.928 43.1334 170.023ZM44.7787 172.182C44.3121 171.628 43.7321 171.321 43.0386 171.261C42.3451 171.202 41.7181 171.41 41.1574 171.884C40.5967 172.358 40.2869 172.943 40.2279 173.638C40.1689 174.333 40.3727 174.958 40.8393 175.513C41.2996 176.061 41.8765 176.364 42.57 176.423C43.2635 176.482 43.8905 176.275 44.4512 175.801C45.0119 175.327 45.3217 174.742 45.3807 174.047C45.4397 173.351 45.239 172.73 44.7787 172.182Z" fill="white"/>
<path d="M32.8253 166.972C32.2695 166.122 32.1065 165.194 32.3361 164.186C32.5576 163.184 33.1122 162.391 33.9998 161.807C34.8873 161.224 35.8376 161.027 36.8505 161.217C37.8554 161.412 38.6357 161.935 39.1915 162.784C39.8478 163.787 39.9486 164.815 39.4938 165.866L42.9553 163.589L43.646 164.645L35.1738 170.218L34.4831 169.162L35.524 168.477C34.3812 168.477 33.4816 167.975 32.8253 166.972ZM38.2622 163.586C37.8652 162.98 37.326 162.605 36.6446 162.463C35.9551 162.327 35.3037 162.46 34.6905 162.863C34.0772 163.267 33.6999 163.81 33.5583 164.493C33.4086 165.182 33.5323 165.83 33.9293 166.436C34.3315 167.051 34.8774 167.427 35.5669 167.564C36.2483 167.706 36.8957 167.575 37.5089 167.172C38.1221 166.768 38.5036 166.222 38.6532 165.534C38.7948 164.85 38.6644 164.201 38.2622 163.586Z" fill="white"/>
<path d="M31.7066 151.778C32.6938 152.119 33.4232 152.766 33.8949 153.72C34.3666 154.673 34.4391 155.647 34.1123 156.641C33.7812 157.627 33.1359 158.358 32.1764 158.836C31.2168 159.313 30.2456 159.386 29.2627 159.054C28.2755 158.713 27.5461 158.066 27.0744 157.112C26.6026 156.159 26.5302 155.185 26.857 154.191C27.1838 153.197 27.8269 152.461 28.7865 151.983C29.746 151.506 30.7194 151.438 31.7066 151.778ZM32.7927 154.268C32.4711 153.618 31.9805 153.181 31.3209 152.959C30.6614 152.736 30.0031 152.788 29.3461 153.115C28.6891 153.441 28.2495 153.936 28.0274 154.597C27.8052 155.258 27.8549 155.914 28.1765 156.564C28.4939 157.206 28.9823 157.638 29.6419 157.86C30.3015 158.083 30.9598 158.031 31.6168 157.704C32.2737 157.378 32.7133 156.883 32.9355 156.222C33.1577 155.561 33.1101 154.909 32.7927 154.268Z" fill="white"/>
<path d="M21.8954 144.299L28.7013 141.831L29.1296 143.019L23.467 145.072L24.4368 147.761L27.2136 146.754C28.3298 146.349 29.1922 146.294 29.801 146.588C30.3974 146.876 30.8069 147.442 31.0297 148.287L29.9135 148.692C29.8097 148.205 29.5851 147.895 29.2399 147.763C28.8824 147.626 28.3406 147.688 27.6146 147.952L23.7216 149.363L21.8954 144.299Z" fill="white"/>
<path d="M19.3611 135.25L19.1205 134.263L26.1508 132.54L26.4464 133.753L21.5111 134.962L27.3985 137.658L27.6391 138.645L20.6088 140.368L20.3132 139.156L25.2484 137.946L19.3611 135.25Z" fill="white"/>
<path d="M24.6801 123.356L24.8846 124.91L21.9153 128.641L25.3163 128.191L25.481 129.443L18.3059 130.392L18.1411 129.14L21.3126 128.721L17.7322 126.032L17.5201 124.421L21.4454 127.4L24.6801 123.356Z" fill="white"/>
<path d="M20.2984 114.653L19.0833 114.609L19.2739 109.315L20.489 109.359L20.2984 114.653Z" fill="white"/>
<path d="M22.604 94.4518C23.058 93.7856 23.6817 93.5354 24.4752 93.7013C25.0609 93.8237 25.5013 94.1234 25.7965 94.6002C26.0842 95.0656 26.1522 95.6629 26.0006 96.3923L25.2621 99.9445L18.1771 98.4635L18.8565 95.1955C19.0042 94.4851 19.2979 93.9732 19.7376 93.6599C20.1678 93.3446 20.6711 93.2471 21.2474 93.3676C21.9275 93.5098 22.3797 93.8712 22.604 94.4518ZM19.9499 95.4834L19.5334 97.4868L21.3897 97.8748L21.8062 95.8714C21.9559 95.1515 21.7142 94.7254 21.0813 94.5931C20.4767 94.4667 20.0996 94.7635 19.9499 95.4834ZM24.8664 96.2294C24.9412 95.8694 24.9133 95.5769 24.7826 95.352C24.6539 95.1175 24.4337 94.9677 24.122 94.9025C23.8291 94.8413 23.5817 94.8934 23.3798 95.0587C23.1704 95.2126 23.0282 95.4696 22.9534 95.8295L22.4808 98.1029L24.3937 98.5027L24.8664 96.2294Z" fill="white"/>
<path d="M27.9179 84.7309L28.2258 83.7782L31.2138 84.7493L30.83 85.9366L28.9849 85.337L27.3114 90.5146L29.1565 91.1143L28.7727 92.3017L25.7847 91.3306L26.057 90.4884C25.5939 89.8497 24.8162 89.3528 23.7238 88.9978L20.5293 87.9597L22.176 82.8649L27.9179 84.7309ZM26.4988 89.1215L27.5341 85.9183L22.9075 84.4148L22.0284 87.1348L24.1076 87.8105C25.1357 88.1446 25.9328 88.5816 26.4988 89.1215Z" fill="white"/>
<path d="M32.1379 75.2387C32.4928 76.2232 32.4481 77.1987 32.0037 78.1653C31.5593 79.1319 30.8485 79.7995 29.8714 80.1683C28.8984 80.5282 27.9255 80.4833 26.9527 80.0337C25.98 79.584 25.3142 78.8713 24.9552 77.8956C24.6003 76.9111 24.645 75.9356 25.0894 74.969C25.5339 74.0024 26.2446 73.3347 27.2217 72.966C28.1988 72.5973 29.1737 72.6378 30.1465 73.0874C31.1192 73.5371 31.783 74.2542 32.1379 75.2387ZM30.8864 77.6488C31.1894 76.9897 31.2204 76.3329 30.9796 75.6781C30.7387 75.0233 30.2852 74.542 29.6192 74.2342C28.9532 73.9263 28.2937 73.8931 27.6407 74.1346C26.9878 74.3762 26.5098 74.8264 26.2068 75.4855C25.9078 76.1357 25.8787 76.7882 26.1196 77.443C26.3605 78.0977 26.814 78.579 27.48 78.8869C28.146 79.1948 28.8055 79.228 29.4585 78.9865C30.1114 78.7449 30.5874 78.299 30.8864 77.6488Z" fill="white"/>
<path d="M38.0724 66.4471L37.3065 67.7128L33.9165 68.0269L35.1966 71.1995L34.4307 72.4652L32.6921 68.1477L28.3259 68.564L29.0993 67.286L32.2212 66.9954L31.0366 64.0846L31.8025 62.819L33.4456 66.8746L38.0724 66.4471Z" fill="white"/>
<path d="M37.0657 55.3797L37.8314 54.3773L43.577 58.7901L42.8113 59.7925L40.4096 57.948L38.13 60.9323L40.5317 62.7768L39.7659 63.7793L34.0203 59.3665L34.7861 58.364L37.1762 60.1998L39.4559 57.2155L37.0657 55.3797Z" fill="white"/>
<path d="M49.2714 51.0934C49.2828 52.1402 48.9198 53.0464 48.1824 53.8121C47.4451 54.5777 46.5545 54.9731 45.5108 54.9982C44.4738 55.0164 43.5701 54.6524 42.7996 53.9063C42.0291 53.1602 41.6347 52.2673 41.6166 51.2275C41.6052 50.1807 41.9682 49.2745 42.7056 48.5088C43.4429 47.7432 44.3335 47.3478 45.3772 47.3227C46.4209 47.2976 47.328 47.6581 48.0985 48.4041C48.869 49.1502 49.2599 50.0467 49.2714 51.0934ZM47.2974 52.9551C47.8001 52.4331 48.0454 51.8232 48.0333 51.1254C48.0211 50.4276 47.7513 49.8233 47.2237 49.3125C46.6962 48.8016 46.0844 48.5523 45.3886 48.5645C44.6927 48.5767 44.0934 48.8438 43.5906 49.3658C43.0946 49.8809 42.8526 50.4873 42.8648 51.1851C42.8769 51.8829 43.1468 52.4872 43.6743 52.998C44.2019 53.5088 44.8136 53.7581 45.5095 53.746C46.2054 53.7338 46.8013 53.4702 47.2974 52.9551Z" fill="white"/>
<path d="M53.9973 43.0328C54.7662 42.7949 55.4096 42.9885 55.9276 43.6136C56.31 44.0751 56.4686 44.5845 56.4035 45.1419C56.3397 45.6857 56.0221 46.1956 55.4505 46.6717L52.6672 48.9905L48.0422 43.4087L50.6028 41.2754C51.1595 40.8117 51.7072 40.5944 52.2458 40.6237C52.7783 40.6456 53.2326 40.8835 53.6088 41.3375C54.0528 41.8733 54.1823 42.4384 53.9973 43.0328ZM51.2798 42.1833L49.71 43.4911L50.9218 44.9535L52.4916 43.6457C53.0557 43.1758 53.1311 42.6915 52.718 42.1928C52.3233 41.7165 51.8439 41.7133 51.2798 42.1833ZM54.6641 45.8362C54.9462 45.6012 55.1059 45.3549 55.1434 45.0973C55.1882 44.8335 55.1089 44.5787 54.9054 44.3331C54.7142 44.1024 54.4883 43.9887 54.2276 43.9921C53.9682 43.9818 53.6974 44.0941 53.4154 44.3291L51.634 45.8131L52.8828 47.3202L54.6641 45.8362Z" fill="white"/>
<path d="M60.1429 34.1568L60.9861 33.5934L64.9996 39.6323L63.9637 40.3245L61.1462 36.0852L60.6272 42.554L59.7841 43.1174L55.7706 37.0785L56.8064 36.3863L59.6239 40.6256L60.1429 34.1568Z" fill="white"/>
<path d="M69.0427 28.9969L69.6106 30.0749L67.4348 31.2275L70.2475 36.5661L69.134 37.156L66.3214 31.8173L64.1328 32.9766L63.5649 31.8986L69.0427 28.9969Z" fill="white"/>
<path d="M75.2846 30.6165C75.6389 31.1731 76.0971 31.5326 76.6591 31.6948C77.2301 31.8535 77.8341 31.8066 78.4713 31.5541C79.3598 31.202 79.8764 30.6175 80.0214 29.8005L81.241 29.9726C80.9866 31.2491 80.1999 32.1488 78.8807 32.6716C77.8127 33.0948 76.811 33.1069 75.8754 32.7077C74.9453 32.296 74.2781 31.5772 73.8737 30.5514C73.4729 29.5345 73.4671 28.5588 73.8562 27.6243C74.2453 26.6898 74.9603 26.0162 76.0014 25.6037C76.9885 25.2124 77.9301 25.2451 78.8259 25.7016C79.7272 26.1455 80.3712 26.8579 80.7578 27.8387C80.8252 28.0097 80.8809 28.1905 80.9249 28.3812L75.2846 30.6165ZM76.4376 26.7105C75.8094 26.9594 75.3599 27.3457 75.0889 27.8693C74.8144 28.3838 74.7449 28.9576 74.8803 29.5906L79.3764 27.8088C79.0258 27.209 78.583 26.8227 78.0479 26.6498C77.5129 26.4768 76.9761 26.4971 76.4376 26.7105Z" fill="white"/>
<path d="M88.8327 21.5596L90.7335 28.5619L89.5184 28.8935L87.9369 23.0676L85.1855 23.8186L85.961 26.6755C86.2728 27.8239 86.2579 28.6903 85.9166 29.2749C85.582 29.8475 84.9856 30.2109 84.1273 30.3649L83.8156 29.2165C84.3082 29.1523 84.6341 28.953 84.7934 28.6187C84.9594 28.2726 84.9411 27.726 84.7383 26.9791L83.6511 22.9738L88.8327 21.5596Z" fill="white"/>
<path d="M96.5468 22.6153C97.2611 22.4987 97.8865 22.6173 98.4229 22.9709C98.9673 23.3134 99.2945 23.8238 99.4046 24.5018C99.5146 25.1799 99.3663 25.7727 98.9598 26.2801C98.5613 26.7765 98.0049 27.0829 97.2905 27.1995L94.276 27.6912L93.1139 20.5284L94.3568 20.3256L94.7752 22.9042L96.5468 22.6153ZM97.1023 26.0391C97.4547 25.9816 97.7337 25.8332 97.9392 25.5937C98.1528 25.3432 98.2317 25.0461 98.1759 24.7023C98.1201 24.3584 97.9514 24.1017 97.6696 23.932C97.3974 23.7607 97.0851 23.7038 96.7327 23.7613L94.9611 24.0503L95.3307 26.3281L97.1023 26.0391Z" fill="white"/>
<path d="M107.053 18.8308L108.31 18.756L108.739 26.0002L107.482 26.0751L107.302 23.047L103.56 23.2698L103.739 26.2979L102.482 26.3728L102.053 19.1285L103.31 19.0537L103.489 22.0673L107.231 21.8445L107.053 18.8308Z" fill="white"/>
<path d="M115.304 21.3642C116.027 21.4071 116.611 21.6598 117.058 22.1225C117.514 22.5761 117.722 23.1457 117.682 23.8315C117.641 24.5173 117.367 25.0633 116.86 25.4694C116.363 25.8664 115.753 26.0434 115.031 26.0006L111.982 25.8197L112.409 18.5753L113.666 18.6499L113.513 21.2579L115.304 21.3642ZM118.912 18.9611L120.169 19.0357L119.741 26.28L118.484 26.2055L118.912 18.9611ZM115.1 24.827C115.456 24.8481 115.761 24.7644 116.014 24.5759C116.277 24.3782 116.419 24.1055 116.439 23.7578C116.46 23.4101 116.351 23.1225 116.113 22.8952C115.885 22.6684 115.592 22.5444 115.236 22.5233L113.444 22.417L113.308 24.7207L115.1 24.827Z" fill="white"/>
<path d="M125.641 18.5668L125.832 17.4805L129.681 18.1614L129.489 19.2477L125.641 18.5668ZM129.458 20.3474L130.455 20.5239L129.198 27.6705L127.972 27.4537L128.855 22.4367L124.024 26.7551L123.026 26.5786L124.283 19.432L125.509 19.6488L124.626 24.6658L129.458 20.3474Z" fill="white"/>
<path d="M146.173 25.0683L143.732 31.8998L142.546 31.4738L144.582 25.7763L141.053 24.5081L139.017 30.2056L137.831 29.7796L140.273 22.948L146.173 25.0683Z" fill="white"/>
<path d="M153.628 28.1282C154.535 28.5814 155.142 29.3011 155.45 30.2874C155.762 31.2649 155.681 32.23 155.208 33.1826C154.734 34.1352 154.012 34.7852 153.041 35.1326C152.075 35.4714 151.139 35.4142 150.232 34.961C149.161 34.4258 148.558 33.5892 148.423 32.4513L146.576 36.1665L145.449 35.6032L149.969 26.5102L151.096 27.0735L150.54 28.1906C151.528 27.6138 152.557 27.593 153.628 28.1282ZM150.632 33.7986C151.279 34.1223 151.933 34.1734 152.593 33.9519C153.258 33.7217 153.753 33.2775 154.08 32.6193C154.408 31.9612 154.461 31.3012 154.24 30.6394C154.023 29.969 153.591 29.4719 152.943 29.1482C152.287 28.8202 151.627 28.7712 150.962 29.0014C150.302 29.223 149.809 29.6628 149.482 30.321C149.154 30.9791 149.099 31.6434 149.316 32.3139C149.537 32.9757 149.975 33.4706 150.632 33.7986Z" fill="white"/>
<path d="M161.935 40.4792C160.911 40.683 159.956 40.492 159.07 39.9062C158.184 39.3203 157.632 38.5154 157.415 37.4913C157.207 36.4726 157.397 35.5149 157.987 34.6182C158.577 33.7215 159.379 33.1686 160.395 32.9594C161.419 32.7555 162.374 32.9465 163.261 33.5324C164.147 34.1182 164.698 34.9232 164.915 35.9472C165.132 36.9713 164.945 37.9316 164.356 38.8283C163.766 39.725 162.959 40.2753 161.935 40.4792ZM159.747 38.8762C160.351 39.2756 160.994 39.4052 161.676 39.2648C162.358 39.1244 162.901 38.7473 163.304 38.1333C163.708 37.5194 163.84 36.8706 163.7 36.187C163.56 35.5033 163.188 34.9618 162.583 34.5624C161.987 34.1682 161.348 34.0414 160.666 34.1817C159.985 34.3221 159.442 34.6993 159.038 35.3132C158.635 35.9272 158.503 36.576 158.643 37.2596C158.783 37.9432 159.151 38.4821 159.747 38.8762Z" fill="white"/>
<path d="M175.108 42.7496L170.416 48.2746L169.479 47.4748L172.885 43.4636L168.731 44.7962L168.61 44.6927L169.26 40.3676L165.853 44.3788L164.905 43.5696L169.598 38.0445L170.623 38.9196L169.978 43.1927L174.083 41.8744L175.108 42.7496Z" fill="white"/>
<path d="M178.086 54.6979C177.043 54.648 176.162 54.2317 175.443 53.4488C174.724 52.6659 174.382 51.7513 174.418 50.7051C174.461 49.666 174.876 48.7826 175.664 48.055C176.452 47.3274 177.364 46.9849 178.4 47.0276C179.443 47.0775 180.324 47.4938 181.043 48.2767C181.762 49.0596 182.104 49.9742 182.068 51.0204C182.032 52.0666 181.62 52.9535 180.832 53.6812C180.044 54.4088 179.129 54.7477 178.086 54.6979ZM176.348 52.613C176.838 53.1468 177.431 53.428 178.126 53.4567C178.822 53.4853 179.439 53.2506 179.979 52.7524C180.518 52.2542 180.802 51.6564 180.831 50.9591C180.859 50.2619 180.628 49.6463 180.138 49.1125C179.654 48.5858 179.065 48.3082 178.369 48.2795C177.674 48.2508 177.057 48.4856 176.517 48.9838C175.978 49.482 175.694 50.0797 175.665 50.777C175.636 51.4743 175.864 52.0863 176.348 52.613Z" fill="white"/>
<path d="M188.827 57.6522C189.416 58.4788 189.616 59.4 189.427 60.4157C189.245 61.4259 188.723 62.2404 187.859 62.8593C186.995 63.4781 186.054 63.7129 185.034 63.5636C184.022 63.4087 183.222 62.9179 182.632 62.0913C181.937 61.1152 181.795 60.0928 182.208 59.0241L178.84 61.4377L178.107 60.4104L186.351 54.5029L187.083 55.5302L186.07 56.256C187.212 56.2107 188.131 56.6761 188.827 57.6522ZM183.529 61.2525C183.95 61.8429 184.504 62.1954 185.19 62.31C185.885 62.4189 186.53 62.2595 187.127 61.8319C187.723 61.4043 188.079 60.8463 188.193 60.1579C188.315 59.4639 188.166 58.8217 187.745 58.2312C187.319 57.633 186.758 57.2794 186.064 57.1704C185.377 57.0559 184.736 57.2124 184.139 57.64C183.542 58.0676 183.183 58.6284 183.061 59.3225C182.947 60.0109 183.103 60.6543 183.529 61.2525Z" fill="white"/>
<path d="M190.515 72.6673C189.515 72.3666 188.76 71.7494 188.251 70.8156C187.741 69.8818 187.63 68.9117 187.917 67.9051C188.208 66.907 188.824 66.1502 189.764 65.6348C190.703 65.1193 191.671 65.0077 192.666 65.2999C193.666 65.6006 194.421 66.2179 194.93 67.1516C195.44 68.0854 195.551 69.0556 195.264 70.0622C194.978 71.0687 194.364 71.8297 193.425 72.3452C192.485 72.8607 191.515 72.968 190.515 72.6673ZM189.33 70.2235C189.678 70.8602 190.185 71.2766 190.853 71.4727C191.521 71.6687 192.177 71.5903 192.82 71.2374C193.464 70.8845 193.883 70.3731 194.079 69.7034C194.274 69.0336 194.198 68.3804 193.851 67.7437C193.508 67.1156 193.003 66.7034 192.335 66.5073C191.667 66.3112 191.011 66.3896 190.368 66.7426C189.725 67.0955 189.305 67.6068 189.11 68.2766C188.914 68.9464 188.988 69.5953 189.33 70.2235Z" fill="white"/>
<path d="M200.721 79.8964L194.02 82.6379L193.544 81.4688L199.12 79.1878L198.042 76.5404L195.308 77.659C194.209 78.1086 193.35 78.199 192.73 77.9301C192.122 77.6666 191.69 77.1171 191.434 76.2815L192.533 75.8319C192.656 76.3144 192.893 76.6146 193.243 76.7326C193.606 76.8559 194.145 76.7713 194.859 76.4789L198.692 74.9107L200.721 79.8964Z" fill="white"/>
<path d="M203.623 88.7943L203.904 89.7705L196.95 91.7801L196.605 90.5807L201.487 89.17L195.495 86.7175L195.214 85.7413L202.168 83.7317L202.513 84.9311L197.631 86.3418L203.623 88.7943Z" fill="white"/>
<path d="M198.815 100.916L198.547 99.3719L201.36 95.5213L197.98 96.1118L197.764 94.8678L204.894 93.622L205.11 94.8659L201.959 95.4166L205.647 97.9544L205.925 99.5559L201.88 96.7415L198.815 100.916Z" fill="white"/>
<path d="M203.565 109.392L204.781 109.384L204.813 114.682L203.597 114.689L203.565 109.392Z" fill="white"/>
</svg>
